<?xml version="1.0"?>
<svg width="903" height="528" xmlns="http://www.w3.org/2000/svg">
 <metadata id="metadata211">image/svg+xmlimage/svg+xmlimage/svg+xmlimage/svg+xmlimage/svg+xml</metadata>
 <g>
  <g stroke="null" id="territories">
   <g stroke="#AAA" stroke-width="2" fill="#504416" fill-opacity="0.7" id="northcaledonia">
    <path stroke="null" id="svg_1" fill-rule="evenodd" d="m104.545219,262.629486l4.513367,-2.650696l2.256683,1.00296l-3.904427,11.068512l3.474579,10.208801l1.862663,15.581848l2.256676,10.423737l-4.728287,8.596893l2.471611,5.122284l-2.471611,5.33725l-5.516335,8.776001l3.474579,3.474548l8.202858,4.119385l6.34021,-5.731293l1.432808,5.301453l2.256683,2.865601l9.420753,-2.865601l2.435806,9.420746l1.21788,5.946167l7.164078,-4.513367l5.122314,-1.826813l0,4.692444l-1.002991,5.122314l8.596893,-8.20285l7.164093,-6.519318l0.394012,10.029694l5.122314,5.086517l-4.692474,6.984924l5.516342,2.650757l-1.038788,4.907349l1.4328,3.295502l8.811813,0l3.474594,-5.946198l7.593903,6.34021l6.519318,-6.555115l3.080551,-1.826843l0.42984,2.650696l-4.728287,6.949158l5.337234,1.862671l6.125275,0.608917l8.202881,-4.083496l0.608932,-8.596893l6.12529,5.086487l2.865631,8.20285l-4.692474,4.692505l-4.083527,5.552124l-5.731247,3.044708l-9.850601,-1.217865l-7.164078,-0.214935l-12.071457,6.770081l4.298447,5.33725l7.98793,-0.429871l6.125275,-3.259674l2.077591,1.611908l-3.080551,3.080597l-5.122314,5.337219l-1.647736,4.083527l3.295486,1.826843l8.596893,-1.217896l-5.731277,6.161102l4.083527,2.041779l6.770035,-1.038788l4.298447,-4.513397l0.78804,-3.259644l-5.910339,-3.474609l4.907394,-4.728271l5.301422,3.295471l12.286362,-8.20285l-1.00296,-7.558075l5.122314,-2.650726l-5.337234,-3.689484l1.826828,-3.295502l4.513367,1.432831l7.987946,3.689484l-1.64772,-4.907379l-2.865646,-3.259674l-8.381973,-4.943176l-2.471588,-4.083557l0.21492,-3.259644l12.286377,8.167053l3.904419,-4.47757l3.044739,8.776001l9.850586,4.513397l0.394043,-9.635681l7.164063,6.77002l2.041779,4.298462l0.608948,11.462524l4.728271,2.865601l3.259674,-22.925018l2.650696,9.635681l2.077576,1.611908l7.34317,-4.692444l0.42984,-5.731293l3.474609,-4.728302l-11.462524,-14.507233l-3.369324,-6.688324l-7.210846,-2.846832l-0.680237,-14.755615l-3.753479,-8.609161l-21.211685,-11.304993l-6.22963,-9.000031l-18.138443,-5.158478l-13.912735,-2.853577l-7.773026,-5.301392l-9.420761,-5.122345l-15.546036,-12.071442l0.608948,5.301422l2.435776,8.596863l0.429855,4.298462l-7.378998,-7.77301l-5.946182,-0.214935l-2.865631,-6.734253l-4.477539,-1.038788l-7.987961,-10.244598l-4.298416,-6.125275l-5.12233,-3.689514l-3.474579,-3.868591l-4.119339,-7.808838l-4.477539,-4.90741l-6.55513,-1.611877l-1.647743,5.086472l-14.543068,-5.910339l-2.041756,17.802689z"/>
    <path stroke="null" fill-rule="evenodd" id="path3273" d="m218.467316,394.759064l-12.157822,-0.144714l-8.539444,-5.21051l5.35524,-0.434204l3.907867,1.013153l2.605255,2.315765l4.486832,-0.578949l3.328934,-1.013153l2.46051,2.75l-1.447372,1.302612z"/>
    <path stroke="null" fill-rule="evenodd" id="path3265" d="m249.006653,471.469238l-7.092087,-5.065765l-0.434189,-4.197357l4.776276,-1.736816l5.499985,6.513123l-2.749985,4.486816z"/>
    <path stroke="null" fill-rule="evenodd" id="path3261" d="m287.882507,441.133362l0.59082,-8.656647l-1.609863,-0.526367l-3.443726,-2.604767l-3.260345,-3.949615l-7.098389,-9.330536l7.671021,1.592072l3.763153,9.552612l4.65213,3.480774l7.525238,11.611084l-7.02359,0.974487l-1.766449,-2.143097z"/>
    <path stroke="null" fill-rule="evenodd" id="path3255" d="m347.433105,403.987488l-3.184204,-2.286957l-1.302612,-2.605225l-1.736847,-4.197388l-0.578949,4.342102l-4.921021,-1.736847l-5.934204,-8.539429l-3.907867,-5.065765l3.473663,-1.736847l3.618378,2.894714l9.552612,5.5l15.631531,9.263123l7.759857,1.879974l8.955841,13.451111l-1.677551,2.55835l-3.06076,-0.899689l-1.93692,-1.937042l-4.703308,1.86673l-3.320129,-1.591248l-2.801392,-2.196411l-1.737793,2.822449l0.9422,2.736023l6.907288,6.366913l1.59494,2.362183l-14.657715,-2.997742l-4.729401,-16.653534l1.754364,-3.599548z"/>
    <path stroke="null" fill-rule="evenodd" id="path3257" d="m306.611633,416.324799l0.723694,-14.184143l-2.894745,4.342072l-10.131531,-4.342072l-4.631561,10.131531l-5.355225,-2.460541l-4.776306,-6.947327l2.026306,-3.618408l6.947327,-3.618378l4.776306,-3.473694l0.28949,-6.223663l3.328918,-5.934143l2.315796,-1.736847l8.684143,1.881561l3.328949,7.092072l-2.315796,4.631531l6.368408,19.684143l-8.684174,4.776306z"/>
    <path stroke="null" fill-rule="evenodd" id="path3263" d="m247.269806,415.890564l7.96048,-6.223663l-6.223633,-5.065765l-5.499969,2.171051l0,3.039429l3.763123,6.078949z"/>
    <path stroke="null" fill-rule="evenodd" id="path3267" d="m234.82251,460.324554l-11.868362,2.46051l-6.368408,-4.486847l-4.052612,1.447388l-2.315781,0l-3.473663,-3.618378l4.921036,-3.907898l3.328934,-2.460541l4.776276,-0.289459l4.631577,3.473663l12.736786,-0.28949l-2.315781,7.671051z"/>
    <path stroke="null" fill-rule="evenodd" id="path3269" d="m207.467377,456.995605l-2.171051,2.026337l-4.197342,-0.868439l-1.302628,-1.881561l-4.631561,0.434174l-5.644699,8.539459l-5.789444,-5.065796l-0.434204,-14.039398l5.644699,-6.223663l6.078918,3.328949l13.605194,8.973663l1.157898,1.447327l-2.89473,2.46051l0.578949,1.447388l0,-0.578949z"/>
    <path stroke="null" fill-rule="evenodd" id="path3271" d="m178.809601,436.153625l-7.960464,6.513123l-2.171066,-6.947327l-2.026306,-3.328949l-1.881561,-4.342072l-3.763138,5.499939l-7.381546,9.697357l-1.592087,-10.42099l-5.35524,6.513092l-6.223663,-0.144714l-5.644699,-4.486786l1.592087,-4.052673l3.473679,-7.960449l-9.842072,1.592072l-7.526268,-12.302582l-9.552582,-15.342041l14.184143,-2.026276l5.355232,4.486816l5.644714,3.763123l9.697311,2.605286l9.407852,0.868408l6.947342,6.368378l0.723663,6.947327l2.89473,0.578949l0.578949,4.197357l3.907883,0.144745l6.513107,11.578888z"/>
   </g>
   <g stroke="#AAA" stroke-width="2" fill="#2d5016" fill-opacity="0.7" id="orkney">
    <path stroke="null" fill-rule="evenodd" id="path3275" d="m58.942978,162.143295l0.072472,3.184235l-2.533115,3.835327l-5.283085,2.533127l-2.67749,-1.881439l1.230328,-2.533112l3.401066,-2.822449l3.980278,-2.67749l1.809551,0.361801l0,0l-0.000004,0z"/>
    <path stroke="null" fill-rule="evenodd" id="path3277" d="m46.06134,168.873672l-8.828911,-0.289474l-2.098667,-3.111832l0.289478,-2.967087l3.618401,-4.921036l3.473663,2.171051l1.809196,-4.269714l3.907887,-7.381546l4.342079,4.776306l-4.48682,4.124969l1.664467,6.368378l-2.967087,2.46051l-0.723686,3.039474z"/>
    <path stroke="null" fill-rule="evenodd" id="path3279" d="m61.186264,157.656616l-4.703922,0.144714l-1.374989,-3.546021l2.749985,-0.868423l2.098667,1.736847l1.447365,0.506577l-0.217106,2.026306z"/>
    <path stroke="null" fill-rule="evenodd" id="path3281" d="m36.074753,159.610764l-3.6185,1.80896l-1.447754,-1.592117l1.809536,-3.6185l3.546024,-0.071884l-0.289307,3.473541l0,0z"/>
    <path stroke="null" fill-rule="evenodd" id="path3283" d="m42.804779,155.48558l-3.328926,-1.519745l0,-2.967087l2.098671,-1.085526l1.519711,2.026306l-0.289455,3.546051z"/>
    <path stroke="null" fill-rule="evenodd" id="path3285" d="m35.857433,151.939529l-5.717081,-1.230255l1.953943,-2.60524l4.342091,1.23024l-0.578953,2.605255z"/>
    <path stroke="null" fill-rule="evenodd" id="path3287" d="m39.765129,147.163162l-6.07856,-1.519653l1.157864,-1.519623l2.966785,-1.737061l2.026398,0.434265l-0.072487,4.342072l0,0z"/>
    <path stroke="null" fill-rule="evenodd" id="path3289" d="m28.18642,151.794815l-0.723686,4.342087l-2.098669,2.967087l-3.11183,-1.664474l0.144741,-2.46051l3.111828,-2.171051l2.677616,-1.013138z"/>
    <path stroke="null" fill-rule="evenodd" id="path3291" d="m29.199547,144.702515l-3.907803,-0.796066l1.302799,-2.388153l-0.868534,-3.473557l2.605005,0.289902l-0.868534,3.256119l1.59211,0.86853l0.072487,2.67749l0.07247,-0.434265l0,0z"/>
    <path stroke="null" fill-rule="evenodd" id="path3293" d="m69.461449,234.274887l-2.171036,0.14473l-1.953941,-1.736847l3.111832,-1.447357l1.664459,1.23027l-0.651314,1.809204z"/>
    <path stroke="null" fill-rule="evenodd" id="path3295" d="m56.000984,198.886887l-1.953934,-0.578949l-0.723686,-1.881546l2.098675,-0.434219l1.013165,1.953934l-0.434219,0.940781z"/>
    <path stroke="null" fill-rule="evenodd" id="path3297" d="m84.731117,206.919739l-0.940788,2.677612l-4.414459,0.940781l-4.269707,-2.460495l-12.664417,-0.217117l3.618412,5.572357l0,2.388138l-6.368397,5.138138l-2.677624,-2.532883l-0.940788,-7.526276l-3.76313,-1.953949l1.447369,4.414459l-8.249973,1.953934l0,3.763138l-4.776291,-4.414444l-3.835499,-2.243408l2.460518,-3.546036l5.427601,0l3.546032,-4.848679l0.434212,-4.559189l7.743382,5.21051l2.243416,-2.749985l3.546024,2.388138l4.92104,-3.907883l2.388138,4.559189l4.776291,-0.578934l6.223656,2.532883l4.124985,0z"/>
    <path stroke="null" fill-rule="evenodd" id="path3299" d="m40.080009,195.9198l-3.473663,1.013168l-0.57893,-3.835526l2.171024,-1.736832l1.881569,1.519714l0,2.750015l0,0.289459z"/>
    <path stroke="null" fill-rule="evenodd" id="path3301" d="m45.50782,202.071075l-2.388176,2.533127l-12.30265,-1.447739l-1.519629,-2.315704l2.315699,-2.605011l6.07856,1.953903l3.329174,-1.447754l4.558907,1.375275l-0.071884,1.953903l0,0z"/>
    <path stroke="null" fill-rule="evenodd" id="path3303" d="m33.06031,196.426376l-2.967094,1.664444l-5.572346,-1.664444l-3.690762,-1.157898l2.026304,-3.618408l4.052616,0.651306l2.243402,2.243423l3.763142,0.506577l0.144737,1.375z"/>
   </g>
   <path stroke="#AAA" stroke-width="2" fill="#2d5016" fill-opacity="0.7" fill-rule="nonzero" d="m639.360107,117.051346c0,0 3.984863,-0.323189 5.465088,-0.620972c0.136658,-1.15519 0.232666,-2.321571 0.355286,-3.483826c1.258362,-0.112206 2.517517,-0.177551 3.781738,-0.275032c0.800903,-1.161697 1.631531,-2.304565 2.509766,-3.415024c1.800415,0.223068 3.646057,0.274963 5.38623,0.83654c1.902039,2.153603 3.165894,4.807587 5.134033,6.910393c1.773926,0.134254 3.499268,-0.543457 5.237183,-0.836601c0.560181,1.865494 2.484741,2.30706 4.091187,2.922264c-0.158264,1.786407 -0.538147,3.542442 -0.664673,5.328911c2.352539,0.680328 4.664551,1.480064 6.990601,2.246155c2.86261,3.41774 5.002441,7.409943 7.895874,10.818192c1.416382,-0.769363 2.726868,-1.716888 4.091248,-2.578491c1.193909,0.926361 2.393433,1.861893 3.495239,2.899384c-1.366882,0.948898 -3.018372,1.533752 -4.148438,2.784744c0.652771,3.420944 1.842529,6.755951 3.094177,10.004562c1.182617,0.020584 2.375732,-0.00235 3.564087,0c0.785278,2.032593 1.654663,4.044632 2.177307,6.165482c-2.66156,0.961212 -5.36145,1.793671 -8.021973,2.750381c-0.588196,-1.275955 -1.193176,-2.549835 -1.913818,-3.758881c-2.154297,1.080444 -3.727966,2.980728 -5.81012,4.148514c-2.16217,0.468109 -2.283569,-2.004379 -2.36084,-3.4953c-1.513245,0.053085 -2.98877,0.405563 -4.457825,0.722c-0.791382,-0.883942 -1.354248,-2.192795 -2.60144,-2.498276c-2.078796,-0.460312 -4.318054,-0.940262 -6.371765,-0.126038c-0.442505,-0.5345 -1.18457,-1.417847 -1.623474,-1.955414c0,0 -1.552002,0.465103 -3.418945,1.668884c-2.921875,1.850067 -6.20166,3.078201 -9.064819,5.007996c-3.383301,4.356308 -4.460632,10.644928 -9.465881,13.637375c-1.614258,-0.054977 -3.175659,-0.586792 -4.77887,-0.744904c-1.99823,2.816544 -3.891235,5.697495 -5.62677,8.686661c-2.74408,-1.70726 -5.022522,-4.051865 -7.666748,-5.901901c-0.52832,-0.423981 -1.214722,-0.459259 -1.845032,-0.595901c-1.932678,4.549744 -3.298279,9.322647 -5.374695,13.809265c-2.583069,-0.151764 -5.157715,-0.325439 -7.735535,-0.527176c-0.860779,-1.072372 -1.32489,-3.139618 -3.071228,-2.807693c-4.343506,0.509018 -8.756409,0.772278 -13.030029,1.684616c-1.525269,1.769379 -2.400513,3.99086 -3.632751,5.959198c-0.782837,1.163361 -1.301392,2.835678 -2.842102,3.162949c-3.247192,0.871857 -6.53125,1.618515 -9.798279,2.406586c-2.572632,0.791092 -5.004517,-1.875168 -7.494751,-0.389633c-2.86322,-1.882843 -5.811523,-3.634186 -8.560669,-5.684158c0.703552,-1.369003 1.449707,-2.833054 2.86499,-3.598419c4.975342,-3.034149 9.84967,-6.233536 14.852173,-9.225281c0.771851,-0.602158 2.086121,-1.043213 2.165894,-2.154465c-0.242371,-3.62262 -0.878723,-7.202423 -1.317871,-10.806732c-0.155029,-1.698334 -0.825439,-3.532806 0.057251,-5.145523c0.927185,-2.003265 1.271484,-3.061371 1.931641,-4.473236c0.47345,-1.106277 0.017517,-1.147171 -0.651062,-1.809174c-0.419922,-0.415787 -1.328186,-0.947632 -1.956726,-1.372879c-2.393066,-1.364746 -4.736389,-2.824432 -7.070801,-4.28598c-1.671692,-0.939621 -1.014404,-3.423447 -2.578491,-4.457947c-1.182068,-0.902328 -2.276855,-1.802032 -3.621338,-2.612885c-1.378357,-0.776901 2.136292,-6.626205 0.115356,-7.165939c-2.177551,-0.935532 -3.798035,-2.184372 -5.518921,-3.398605c0.27417,-1.14035 0.411316,-2.635208 0.144226,-5.104866c0.500305,-1.665421 3.244934,0.592514 5.180481,0.275108c-0.228699,-3.507248 -1.496033,-5.941101 -2.163086,-8.247742c-3.148743,-2.368439 -5.750305,-5.212303 -6.565002,-6.515373c-1.285645,-0.862076 -5.285095,-2.527641 -4.831421,-3.049873c3.08606,-3.057831 11.53241,-4.687218 14.61499,-7.750351c1.333679,-1.303215 -9.385559,-6.690826 -8.413086,-8.269737c0.574829,-0.933228 1.157654,-1.861206 1.832581,-2.72065c1.052856,-1.253372 1.639282,-2.797081 2.486816,-4.182877c0.586609,-0.983162 1.696594,-1.420921 2.681641,-1.902344c6.414978,-2.847038 12.810486,-5.748024 19.195374,-8.663734c1.082886,-0.497681 2.216187,-1.066635 3.449463,-0.951164c2.700745,0.149879 5.390015,0.486893 8.09082,0.66465c0.99115,-0.006187 1.854553,0.530418 2.578369,1.157471c4.832886,4.302666 9.600464,8.666267 14.451111,12.949745c0.682678,0.798103 2.23291,1.254997 2.819153,0.114609c2.653381,-4.185135 4.77594,-8.699928 7.426025,-12.892471c1.541931,1.170517 3.199158,2.227295 4.561035,3.609909c1.115784,2.271896 0.975708,4.885246 1.730408,7.254135c1.657227,1.385201 4.042358,1.379997 6.050903,2.005516c-0.841614,2.564972 -0.591797,5.280197 -0.607361,7.930283c0.004761,2.837677 0.201172,6.279221 0.180847,9.114494c0.101318,2.601639 3.946045,10.816498 3.946045,10.816498z" id="anglia"/>
   <path stroke="#AAA" stroke-width="2" fill="#2d5016" fill-opacity="0.7" fill-rule="nonzeropro" d="m721.747559,181.607513c0,0 1.048889,0.100769 2.018188,0.133179c0.987,0.015915 2.356323,-0.561554 2.356323,-0.561554c6.283691,-2.945572 12.703308,-5.593613 18.863281,-8.801407c0.78186,0.698837 1.572632,1.404144 2.372253,2.085892c3.788757,-0.88562 7.315857,-3.042221 11.310913,-2.864868c1.156677,0.045975 2.395264,-0.120209 3.495361,0.343536c1.399414,2.728745 2.083496,5.765076 3.518372,8.48027c6.16333,-0.986374 12.330811,-1.911484 18.508484,-2.818893c1.579102,-0.198578 3.55304,-1.016434 4.631287,0.664658c-1.467163,3.046921 -3.329102,5.879974 -4.849976,8.892746c-0.774231,1.377625 -0.083069,2.938522 0.047791,4.388031c0.329895,1.732941 0.453613,3.002747 0.453613,3.002747c0.394836,1.126617 1.037048,1.302795 1.9151,0.768951c2.009216,-1.39827 4.130554,-2.630341 6.19281,-3.953766c0.112,-0.836136 0.235718,-1.677567 0.341797,-2.521347c1.744141,0.426605 3.494202,0.861465 5.291321,1.019974c0.123718,-0.852646 0.235718,-1.707611 0.359436,-2.566727c2.64563,-0.622803 5.338501,-1.075928 7.948792,-1.856674c-0.141418,-0.764816 -0.347656,-1.523178 -0.418335,-2.303329c0.524414,-0.771896 1.343445,-1.263901 2.091736,-1.799515c1.773621,4.106979 1.107727,8.810837 2.545532,12.99559c2.492432,1.33403 5.532898,0.742447 8.243408,1.37529c-0.789551,7.935211 -2.109436,15.819199 -3.005127,23.744995c-0.070679,0.889755 -0.206238,1.876709 0.353577,2.647446c1.343445,0.662888 2.816528,0.991089 4.230652,1.466614c-3.5177,5.893524 -7.559875,11.455902 -11.242615,17.247513c-1.378784,2.487152 -0.90741,5.474579 -1.74408,8.124954c0,0 -0.223938,1.843735 0.117798,2.384048l3.871338,10.531403l1.054688,5.220612l-6.575806,5.245422l-6.534729,3.335663l-2.58667,2.941467l-14.260681,-3.929047l-5.765686,1.425354l-8.005371,-4.914795l-2.269714,-16.601715c-0.178589,-0.948669 -0.285828,-2.302139 -1.421326,-2.578522c-2.806458,-0.226822 -5.545837,0.753052 -8.342957,0.790787c-0.75116,0.091309 -1.264465,-0.520294 -1.775879,-0.951035c-4.818848,-4.392151 -9.631714,-8.797882 -14.42865,-13.213608l-1.351685,-1.226212l-1.467163,-1.627472l-1.329407,-1.100098c-2.423462,-2.082352 -4.899414,-4.100479 -7.643555,-5.752716c-2.000977,-1.129547 -3.570129,-3.096436 -5.902283,-3.55249c-0.226929,0.316406 -0.678223,0.95575 -0.905151,1.272156c1.313965,2.222595 3.74054,3.421692 5.157043,5.557678c-4.956665,0.335266 -9.93689,0.324661 -14.898193,0.550339c-1.698242,-2.7146 -3.312195,-5.479889 -4.916077,-8.251068c-0.508484,-0.786621 -0.939819,-1.665756 -1.69635,-2.24617c-3.042847,-0.257477 -6.081543,0.321152 -9.121948,0.366516c0.008179,-2.27504 -0.220398,-4.606644 0.389404,-6.829834c0.850891,-1.263306 2.055298,-2.24144 3.059998,-3.381042c-0.860901,-2.735229 -2.291016,-5.263031 -3.071228,-8.021835c-0.674622,-5.86998 -0.321655,-11.835983 -1.008728,-17.694153c-0.241577,-0.079559 -0.731873,-0.229813 -0.973999,-0.309372c-1.576172,1.005829 -2.933838,2.30275 -4.44635,3.392242c-0.99231,-1.644562 -1.803101,-3.389282 -2.601501,-5.134018c1.649353,-1.673416 3.367554,-3.279099 5.076843,-4.893585c1.190857,-1.365845 3.171265,-0.750702 4.755737,-0.847916c9.012329,0.794876 14.991943,1.751205 23.988953,2.70871l-0.00061,0z" id="devon"/>
   <path stroke="#AAA" stroke-width="2" fill="#445016" fill-opacity="0.7" fill-rule="evenodd" d="m413.276245,492.075165l-7.964111,1.646332l-2.252014,-2.890198l0.272217,-6.31781l11.051727,-4.977234l4.535889,4.268982l11.143066,3.423462l-3.011017,-6.829834l-4.248352,-7.238159l-4.337372,2.355194l-4.967255,-1.707611l-5.976013,2.64389l-5.710876,-0.437225l-2.661591,-4.931305l1.140717,-6.832794l-6.192871,3.217804l2.227356,-7.10379l2.850708,-1.740601l4.752197,-8.803162l2.850677,-0.382446l2.035858,0.704132l0.451935,-7.226379l-3.523041,-3.522461l-0.451355,-5.780975l-3.523041,-4.5159l0,-5.600098l4.335602,-7.497437l-2.438232,-5.058014l5.238281,-4.877686l10.477753,0.271057l-1.444763,-1.80658l2.167786,-2.890228l3.883636,-0.271027l0.271057,1.174347l1.535553,-0.542084l0.180908,-1.625732l11.019287,-6.684265l4.42572,-1.083618l0.090759,-1.986908l-3.974396,1.715851l0,-2.077637l5.238922,-3.883667l4.244843,-0.180878l1.716461,1.987518l3.161194,6.593536l6.774445,3.884216l2.077667,-0.180878l-1.80661,-2.348724l-4.335571,-4.786926l-0.090149,-11.290344l6.773834,-2.529572l1.355255,-2.077057l5.419189,-0.180908l2.438873,-2.528992l14.000244,1.896729l-0.361237,1.264496l-4.245453,4.155304l-2.528992,-0.271057l-0.993439,-1.445404l-4.696808,0.361237l-3.703308,1.264496l-0.180908,0.993439l-1.896759,0.451935l-1.264496,2.348114l-0.90332,2.529602l3.432281,0.451355l2.077698,-1.535553l2.980927,-1.896759l2.438843,-0.451355l4.877106,0.361206l3.703339,3.703339l1.084198,-0.542114l-1.80661,-2.890167l-1.445404,-2.619751l5.148773,-4.425751l10.025848,7.587006l-2.619171,2.61972l0.271057,6.683716l3.341553,2.7099l2.800049,-1.083588l7.406677,1.264496l6.774445,10.025818l-0.993469,2.528992l-1.083557,-0.542084l0,2.709869l-4.426392,3.161255l0.361237,6.684296l2.61972,0.722412l0.361206,6.232361l2.800049,7.767883l9.516724,7.234619l1.544434,6.793884l6.885803,8.237549l5.441589,9.332275l5.443909,3.249634l-3.175964,13.757477l1.107178,10.581512l7.247009,6.060272l6.431519,-1.445404l4.358521,4.435791l12.411682,5.240631l1.455444,5.601868l-2.910828,1.711731l-6.068542,-2.903137l-2.995667,8.867371l-1.549683,5.802795l-87.386017,0.271667l0.810791,-6.351379l-16.581055,-9.326416l-0.102539,8.862671l3.441681,5.156982l-4.154694,1.528503l-15.126831,0.266907l-1.176727,-6.894653l-4.690887,-3.185974l-4.52829,7.318909l-6.877533,-0.188538l-1.250946,-5.796326l-11.950287,-1.367615l2.187836,-8.06427l-5.435699,-7.340149l7.0914,-10.883759z" id="northireland"/>
   <path stroke="#AAA" stroke-width="2" fill="#2d5016" fill-opacity="0.7" fill-rule="evenodd" d="m508.93692,419.84549l9.682892,-8.315277l-1.559692,12.791107l9.671082,0.468445l2.963867,-7.799713l17.939331,0.624023l7.643555,-6.240021l7.331238,-0.624023l3.587891,3.120026l8.111389,-5.303741l1.71582,10.139587l6.083862,-6.551727l6.707275,0.93573l7.643616,-3.743408l6.083801,1.247986l8.11145,-2.028168l17.315308,7.019592l2.807678,0.624023l7.019592,4.367981l10.138916,0l15.131592,8.579254l1.87146,7.643555l12.947266,-6.863373l2.339844,12.478821l-4.835327,8.423706l7.799133,12.167114l-2.183655,9.827881l1.559692,14.194672l1.871948,12.791718l4.211853,-3.432281l9.203369,7.799713l0.468384,7.955841l8.267578,10.138977l2.495422,6.707825l-148.929932,-1.256226l3.948486,-13.051575l5.674316,2.507202l3.59375,-2.219666l-1.519043,-6.552277l-12.651489,-5.481079l-4.505249,-4.808136l-6.751465,1.471893l-6.225281,-5.910004l-1.141357,-9.188538l3.463562,-14.882355l-5.951294,-3.5961l-5.281311,-9.199738l-7.014893,-8.108459l-1.546143,-6.548767l-9.745361,-7.790863l-2.272705,-7.333649l-0.546783,-6.21701l-2.745239,-0.980499z" id="southireland"/>
   <path stroke="#AAA" stroke-width="2" fill="#2d5016" fill-opacity="0.7" fill-rule="evenodd" d="m498.107056,339.930603l-5.693665,-4.601715l-6.473602,-3.197815l-4.44574,-3.275848l-3.041809,-6.629578l0.935944,-2.651825l4.523682,1.793884l3.665833,-0.857971l4.367737,-2.729828l5.537628,3.119812l4.601746,1.871918l3.431824,4.523682l7.25351,6.785614l-1.169922,4.289764l0.623962,2.885834l2.807861,3.821747l-1.247925,2.183899l-2.573853,-1.871918l-4.44574,-2.495819l-8.657471,-2.963837z" id="isleofman"/>
   <path stroke="#AAA" stroke-width="2" fill="#2d5016" fill-opacity="0.7" fill-rule="nonzero" d="m505.541016,106.231033c0.542114,-0.270004 1.053955,-2.418175 1.053955,-2.418175c0.550568,-1.438477 1.430542,-2.731613 2.246277,-4.033806c1.545624,1.898346 2.56723,4.163765 4.148376,6.028175c0.665161,0.754257 1.735535,0.159126 2.463806,-0.183525c9.115784,-4.879837 18.228271,-9.762291 27.366821,-14.600235c2.585205,-1.313309 5.016113,-2.955482 7.758423,-3.942047c-0.134766,2.41552 -0.464172,4.816185 -0.699158,7.220016c-0.108704,1.094788 -0.262573,2.271278 -1.077271,3.082268c-2.373596,2.505684 -4.909546,4.858078 -7.311768,7.334587c-0.680542,0.751595 -1.502136,1.680885 -1.260254,2.773552c0.412659,2.030945 1.237976,3.953705 1.82196,5.935867c1.281494,3.73201 1.977417,7.609879 2.744385,11.469162c0.227051,1.142525 1.036438,-2.183159 1.820923,-4.265587c-0.404175,-0.19043 -2.040466,-2.044739 -1.782227,-3.268417c-0.318787,-2.904572 -2.507813,-8.52272 -1.942383,-7.772179c0.26416,0.339981 2.276001,-4.653862 5.709961,-5.427216c0.609985,-0.137367 6.172974,-8.910461 8.708923,-10.217918c0.67572,1.422028 5.119019,4.558388 7.7276,6.471588c-0.536316,0.770157 -5.13501,2.874847 -9.580383,4.796013c-3.869385,1.681412 -4.677734,2.946465 -4.609314,3.524086c-0.108765,1.89888 4.408264,3.318817 5.040527,3.871498c0.588745,0.900124 3.932007,4.520737 6.642395,6.498116c0.741577,2.121666 1.174377,4.47406 1.626282,5.6166c0.279541,0.707558 -4.15741,-1.862312 -4.91748,0.976494c0.103943,0.77388 0.178223,4.628937 -0.146423,6.179871c0.539978,0.92662 4.739807,3.3591 5.525879,3.837006c1.341431,0.620056 -1.504822,5.838806 -0.707581,6.859344c1.655457,0.957947 2.312622,1.559967 4.233276,2.93956c1.573181,1.035385 0.906982,3.514008 2.590027,4.480942c3.122559,2.140762 6.572327,3.773941 9.511902,6.1884c-0.765869,2.059052 -2.016113,3.968567 -2.452637,6.131058c0.387207,4.822556 1.293701,9.58992 1.788025,14.405029c-5.582092,3.562805 -9.538452,6.406876 -15.3078,9.65834c-0.582397,0.394089 -2.056396,1.152054 -2.522644,2.037323c-1.089966,1.86972 -2.171509,3.968567 -4.10437,5.150345c-3.018555,2.006546 -5.997925,4.058731 -8.961365,6.142746c-1.660156,0.888428 -0.990234,3.002136 -1.260803,4.526566c-1.253357,0.445007 -2.563477,1.2995 -3.930908,0.848129c-1.792236,-0.56012 -3.533081,-1.272995 -5.305725,-1.89093c-2.405945,-0.801987 -3.623291,-2.889175 -5.523743,-4.396606c0,0 -1.08844,0.878372 -1.08844,0.878372c-3.203186,3.103439 -6.638123,5.956039 -9.970215,8.915741c-2.062744,1.662338 -1.807678,4.601349 -2.544373,6.921921c-1.324463,0.266815 -2.665405,0.469955 -3.987671,0.733582c-0.213257,1.807114 -0.190979,3.617966 -0.229675,5.431992c-2.178955,1.500015 -4.48999,2.816513 -6.887482,3.930893c-2.595856,-1.541901 -5.4039,-2.755493 -7.826813,-4.561035c-0.961121,-2.035736 -1.158966,-4.33403 -1.959869,-6.429184c-0.163879,-0.748398 -0.952118,-0.869873 -1.592865,-0.870941c-2.986237,0.030228 -5.961853,0.698578 -8.950226,0.481094c-1.615631,-0.450867 -2.966064,-1.516998 -4.434784,-2.291931c-1.088409,-0.706512 -2.641479,-1.222061 -2.830872,-2.70459c-0.722931,-3.218018 -1.461243,-6.432343 -2.085541,-9.672119c-0.441864,-1.664444 1.637909,-2.6595 1.672943,-4.205673c-0.965393,-1.929642 -2.600128,-3.42543 -3.610046,-5.329086c-0.111938,-1.163193 0.214264,-2.319504 0.344208,-3.472107c-0.908569,-0.397827 -1.884003,-0.675201 -2.716217,-1.226303c-1.511169,-2.208649 -1.025848,-5.140274 0.011658,-7.449158c0.829559,-1.187103 2.193848,-1.847977 3.254639,-2.807526c2.007111,-1.489395 2.242065,-3.721375 2.695587,-6.02179c0,0 -4.44809,-10.097534 -4.44809,-10.097534c0,0 0.642334,-17.609268 0.642334,-17.609268c0,0 -5.524811,-4.010452 -5.524811,-4.010452c2.230927,-4.533463 4.83313,-8.304749 7.184998,-12.776665c0.913391,-1.596031 2.693481,-2.312096 4.159546,-3.288589c7.892578,-4.967323 15.754944,-9.987732 23.596069,-15.035683l0.000519,0z" id="york"/>
   <path stroke="#AAA" stroke-width="2" fill="#2d5016" fill-opacity="0.7" fill-rule="nonzero" d="m425.091888,172.332123l17.602478,-5.901886l2.52005,-0.773804c0,0 4.709991,-1.500854 7.25531,-2.583984c1.784729,-0.772705 3.011017,-2.361816 4.354797,-3.701553c1.603333,-1.790863 3.401978,-3.389954 5.145447,-5.042374c0.000061,0 7.850159,-15.654327 7.850159,-15.654327c-0.000092,-0.000031 4.664124,3.392151 4.664124,3.392151c0.000061,0 -0.595917,17.155579 -0.595917,17.155579c0.000061,0 4.606964,10.245193 4.606964,10.245193c-0.31955,0.862991 -0.926025,2.783707 -1.421051,3.564056c-1.248718,1.450089 -3.107452,2.25 -4.286041,3.758865c-0.865845,1.678299 -1.273987,3.552292 -1.661682,5.386169c0.48056,2.175125 1.168396,4.824753 3.632782,5.47789c0.003662,1.070023 -0.464233,2.26358 0.194885,3.220245c1.02005,1.570328 2.201599,3.033081 3.266083,4.572495c-0.562164,1.068604 -1.512207,1.997314 -1.719086,3.208817c0.312317,2.302216 1.107941,4.53006 1.226288,6.864502c-1.853027,0.279083 -3.999756,0.009171 -5.500763,1.352295c-2.529724,2.039825 -4.671021,4.516861 -7.288544,6.45195c-1.07547,-0.558533 -2.153961,-1.130814 -3.254669,-1.638779c-1.310577,1.152756 -2.352081,2.71965 -3.91925,3.518204c-2.67334,-1.078125 -6.516541,-3.412933 -6.516541,-3.412933c0,0 -5.874268,4.085571 -8.060547,5.750763c0.836273,2.722885 3.14212,4.609161 4.503784,7.047897c-1.95047,1.132263 -3.865967,2.369141 -5.947754,3.243164c-1.573364,-0.378586 -2.816803,-1.648361 -4.240173,-2.406601c-1.211853,0.34668 -2.393402,0.853271 -3.655731,0.974091c-2.701263,-1.247864 -5.011383,-3.214233 -7.666687,-4.56105c-4.057465,2.931229 -7.609528,6.499329 -11.689209,9.397156c-2.808502,-2.577469 -5.235687,-5.526123 -7.907379,-8.239716c-3.799133,-3.762375 -0.993896,-4.904495 -4.766144,-8.693375c-1.562744,-1.587738 -9.283875,-6.285233 -11.140259,-7.545395c-1.449615,-0.190063 -2.775604,0.84288 -4.091248,1.35228c-3.551666,1.678024 -7.133789,3.274597 -10.680695,4.962189c-0.784088,0.311981 -1.57666,0.823151 -2.452423,0.733429c-2.618561,-2.635803 -4.902435,-5.590485 -7.426025,-8.319946c-1.622253,-1.971222 -3.428467,-3.779266 -4.950714,-5.833099c6.375031,-6.691284 13.024567,-13.120529 19.573578,-19.64238c0.735382,-0.856323 1.849243,-1.148544 2.922302,-1.306458c13.846924,-2.086563 27.683868,-4.20929 41.519501,-6.371719z" id="northumberland"/>
   <path stroke="#AAA" stroke-width="2" fill="#445016" fill-opacity="0.7" fill-rule="nonzero" d="m498.282745,220.931885c0.375885,1.03157 0.687714,1.417755 2.288849,2.349075c0,0 4.772247,2.881943 7.364349,3.97876c3.011627,-0.96373 5.676666,-2.928299 8.331451,-4.641296c0.058472,-1.612732 -0.046997,-3.235077 0.217712,-4.83609c1.162964,-0.690872 2.7854,-0.234253 3.827637,-1.065781c0.770508,-1.932693 0.747192,-4.102814 1.581421,-6.016479c0.675842,-1.003494 1.66687,-1.738083 2.567078,-2.532654c2.817383,-2.345734 5.41571,-4.96608 8.365723,-7.151031c1.457214,1.312332 2.682617,3.050842 4.664307,3.598434c2.277832,0.692734 4.422363,1.853607 6.772766,2.280533c1.24707,-0.146942 3.307129,-1.334427 4.544373,-1.481232c0,0 0.150574,-2.455383 0.154236,-2.575592l0.003601,-0.384171c-0.035522,-1.152191 1.096252,-1.770401 1.89856,-2.37767c3.195068,-2.195038 6.400269,-4.359695 9.580566,-6.578018c3.482788,2.056488 6.785706,4.402725 10.245178,6.497787c0.681396,-0.401718 1.348755,-0.820389 2.028442,-1.237656c0.631104,0.339691 1.735413,0.765106 1.735413,0.765106c0.7771,0.197723 2.343384,0.309647 2.778687,0.173004c4.011536,-1.033737 7.015686,-2.077484 11.151672,-2.47377c1.213806,2.489197 2.148315,5.143921 3.67865,7.460434c2.100586,2.152664 4.572327,3.934998 6.589417,6.176926c1.605652,2.121445 2.28186,4.833206 4.011047,6.864532c1.554321,0.73587 3.553284,0.193802 4.985107,1.134521c1.722656,2.73288 3.169678,5.661636 4.526672,8.594971c-1.63208,0.701523 -3.21521,1.494644 -4.710022,2.452423c0.358337,2.3228 1.9552,4.669464 0.916809,7.013519c-0.51062,1.569916 -0.839966,3.192734 -1.283569,4.778793c-2.811157,0.723236 -5.665588,1.240173 -8.503296,1.833603c-2.390869,0.377762 -2.893372,3.121552 -4.263062,4.721497c-0.920288,-1.011749 -1.722473,-2.128143 -2.716064,-3.071259c-0.539856,-0.626785 -1.621521,-0.567841 -2.028381,0.171906c-2.627197,3.221512 -4.684814,6.885544 -7.414612,10.027466l-1.432495,1.111603c-2.551514,1.047577 -5.112122,2.152496 -7.838623,2.647247c-1.253967,-2.555267 -2.187927,-5.298111 -3.747437,-7.689621c-0.20105,-0.06308 -0.601135,-0.189087 -0.802185,-0.252136c-3.255493,0.576111 -6.157532,2.440994 -9.397156,3.071289c-3.905518,-1.928391 -7.806335,-3.912125 -11.528748,-6.18837l-0.022705,-1.673172c-3.460815,0.641937 -5.897461,3.713806 -9.305481,4.526703c-3.631775,0.16127 -7.271118,-0.079834 -10.898438,-0.275055c-1.346924,-2.434326 -2.518494,-4.966507 -3.816162,-7.426056c-0.414001,-0.797501 -1.207764,-1.752838 -2.223267,-1.34082c-2.341064,0.735184 -4.418091,2.207352 -6.853027,2.670181c-1.062744,-1.749634 -1.922607,-3.628281 -3.117126,-5.29451c-0.437897,-0.719467 -1.384918,-0.455399 -1.994019,-0.160431c-1.750641,0.848526 -3.417877,1.859711 -5.214233,2.612854l-1.512726,0.687622c0.325623,2.085159 2.013794,3.518845 3.231659,5.111145c-1.317322,1.097687 -2.971466,1.692001 -4.274536,2.796204c-0.157257,0.524643 -0.271027,1.055695 -0.355286,1.592957c2.997314,2.190277 6.27832,4.009094 9.099274,6.429001c0.131226,1.423187 -1.767456,2.282288 -2.876495,2.876495c-2.426361,-0.239044 -4.582245,-1.596954 -6.979095,-1.982605c-0.776764,0.06723 -1.212036,0.48526 -1.306458,1.26062c0.661896,1.836395 1.817017,3.438171 2.635803,5.20282c-2.178802,1.479034 -4.579346,2.579132 -6.864532,3.873474c-6.411133,3.497101 -12.841858,6.968445 -19.241333,10.48587c-0.746063,0.33252 -1.521912,0.945679 -2.372192,0.584442c-3.662933,-1.087677 -7.306274,-2.262085 -10.967163,-3.357788c-3.510498,-0.869385 -6.148071,-3.495239 -9.064819,-5.4664c-2.596802,-2.241882 -6.00943,-2.974365 -9.122162,-4.20578c-1.421875,-0.614532 -3.346527,-0.781342 -4.045349,-2.383698c-1.636353,-3.22525 -3.240875,-6.465759 -4.847565,-9.706589c-0.649506,-1.134277 -0.463562,-2.566544 -1.123077,-3.66716l-4.522614,-11.349365l-13.744537,-7.891922c3.353973,-3.157776 7.015869,-5.966324 10.543152,-8.927307c2.19162,1.246231 4.235596,2.739853 6.417572,3.999512c1.503479,0.941055 3.122772,-0.417389 4.698578,-0.424011c1.406403,0.625854 2.512085,1.78067 3.953674,2.337845c0.802734,-0.042648 1.495361,-0.502518 2.200348,-0.848053c2.107422,-1.185699 4.285034,-2.273041 6.268524,-3.667191c-1.261902,-2.531708 -3.277283,-4.575439 -4.744385,-6.979111c1.972931,-1.598282 4.117981,-2.962555 6.19989,-4.412094c2.344269,1.045685 4.477112,2.758118 7.024902,3.23172c1.517548,-0.702377 2.503052,-2.19696 3.770325,-3.266113c1.081055,0.406052 2.137329,1.570633 3.311951,1.306458c3.052277,-1.989822 5.298126,-4.978348 8.228302,-7.128098c1.425201,-0.802261 3.147034,-0.542969 4.721466,-0.653244c0.280701,1.324738 0.454041,2.697525 1.008453,3.942245c0.960571,1.195541 2.477997,1.72818 3.735962,2.544113c1.483307,0.766708 2.838898,1.91835 4.515228,2.211777c3.063232,0.030334 6.10733,-0.443558 9.167969,-0.561539c0.617737,2.026047 1.059692,4.101685 1.531708,5.613449l-0.000031,0z" id="lancaster"/>
   <path stroke="#AAA" stroke-width="2" fill="#2d5016" fill-opacity="0.7" fill-rule="nonzero" d="m607.497986,216.986664c0.86615,0.295319 1.383057,0.752472 1.902344,1.707535c1.503601,3.21199 3.467102,6.072952 4.849731,9.344803c-1.558716,0.944977 -3.197937,1.722992 -4.847534,2.486801c0.243896,1.632492 0.667419,3.235565 1.214722,4.790268c1.750366,0.00499 3.646179,-0.61113 5.305969,0.080215c1.291626,1.441742 2.064209,3.354584 2.544128,5.214279c-1.235657,1.729233 -3.438049,2.308517 -5.134094,3.472382c0.356689,2.857468 0.875427,5.686218 1.34082,8.526199c0.218445,1.102722 0.330078,2.514145 1.535583,3.002533c2.261292,1.146896 4.448486,2.479904 6.841675,3.346298c2.387146,-2.914581 4.291504,-6.186569 6.72699,-9.064835c2.777466,0.583008 5.24646,2.038544 7.850037,3.105637c2.964783,1.231415 5.816895,2.744598 8.870117,3.758911c0.768494,-1.65361 1.367676,-3.36615 2.142883,-5.019485c0.641907,0.174316 1.524841,-0.024811 1.982605,0.573013c2.538086,3.114807 4.529846,6.670776 7.334412,9.569031c2.11908,-4.005859 4.615295,-8.78685 6.560974,-12.88147c0,0 2.618408,0.894363 2.618408,0.894363c6.073975,2.102097 12.14325,4.225235 18.198425,6.383194c1.102539,0.359833 2.189941,0.842316 3.369263,0.882416c1.710327,-0.524994 3.242004,-1.504456 4.83606,-2.303436c3.100464,-1.677475 6.346008,-3.086655 9.397156,-4.859039c-0.443176,-1.361237 -1.131592,-2.665192 -1.294861,-4.102646c0.354614,-1.195511 1.18634,-2.167999 1.879333,-3.185883c2.37262,-3.206543 4.593994,-6.527496 6.990601,-9.718063c-1.72699,-3.10527 -3.573853,-6.144135 -5.420532,-9.179428c-3.3479,-0.204987 -6.675842,0.543823 -10.016052,0.252136c-0.156433,-2.012833 -0.020813,-3.648788 -0.098755,-5.666718c-0.125793,-1.585754 0.756348,-3.225601 0.756348,-3.225601c0.96759,-1.581787 1.186523,-1.644226 2.482483,-2.957291c-0.625305,-2.070663 -1.566956,-4.020706 -2.360779,-6.027939c-0.911072,-2.086349 -0.542297,-4.407272 -0.756348,-6.612396c-0.311646,-3.615799 -0.145264,-7.256149 -0.573059,-10.864059c-1.457153,1.051483 -2.741394,2.354538 -4.343201,3.185898c-1.688477,-1.385483 -2.159607,-3.727798 -3.300537,-5.535187c0,0 -1.014709,-2.004349 -1.014709,-2.004349c0,0 1.995483,-2.075592 3.134766,-2.980728c1.575562,-1.274185 2.753662,-3.083084 4.606934,-3.988068c1.914063,-0.236679 3.849121,-0.04126 5.775818,-0.080215c-0.929321,-1.586227 -1.67157,-3.342361 -2.991089,-4.652771c-3.562744,-1.739258 -7.640991,-2.274719 -11.127563,-4.194321c0.348145,-1.55925 0.796265,-3.098877 1.180359,-4.652725c-2.24292,-1.23027 -4.848572,-1.604675 -7.013489,-2.991089c-1.049377,-0.464752 -0.903076,-1.788559 -1.237671,-2.716003c-1.209778,0.311844 -2.436523,0.60199 -3.655701,0.848038c-0.75116,-0.91246 -1.296936,-2.020508 -2.246155,-2.750381c-1.223511,-0.441467 -2.549988,-0.412949 -3.827698,-0.515701c-0.300415,0.893341 0.115601,2.812164 -1.363708,2.429504c-1.122253,-1.036743 -1.868958,-2.400452 -2.876404,-3.541138c-3.294556,1.613617 -6.497375,3.410843 -9.77533,5.053879c-1.781921,0.750458 -2.328918,2.75441 -3.266235,4.263107c-2.201416,3.912537 -3.931763,8.659424 -8.285461,10.657745c-1.419006,-0.058273 -2.791504,-0.491211 -4.171448,-0.779282c-0.544617,0.771347 -1.081055,1.551498 -1.592957,2.33783c0,0 -1.05426,1.718994 -1.05426,1.718994c-1.088318,1.559494 -1.964722,3.27121 -3.197327,4.721527c-0.983276,0.310013 -1.769287,-0.519043 -2.498352,-1.031418c-2.133667,-1.772949 -4.283813,-3.533997 -6.509216,-5.19136c-2.197388,4.263763 -3.270874,9.005722 -5.340332,13.327942c-2.877502,-0.005676 -5.745728,-0.335968 -8.617859,-0.44693c-1.631592,0.042435 -2.142578,-1.773117 -2.945313,-2.853561c-3.699219,0.251312 -7.358826,0.857376 -11.047363,1.203323c-1.86615,-0.025635 -2.400574,1.998718 -3.266052,3.266083c-0.939636,1.834152 -2.297607,3.487244 -2.876465,5.477859c0.549561,1.675064 1.46051,3.204681 2.120117,4.836121c1.529419,4.322128 6.383301,5.983795 8.709595,9.729492c0.994934,1.849594 1.88269,3.761032 2.933655,5.581009c1.324036,0.197723 2.749268,0.369873 3.951599,0.545151z" id="mercia"/>
   <path stroke="#AAA" stroke-width="2" d="m729.623108,106.532631l1.411621,8.639542l-10.873352,3.715263c-0.532104,1.709373 -0.827271,4.003937 -1.740051,5.541832c-2.179016,1.652229 -4.446899,3.207802 -6.773193,4.641426c-1.335754,0.956314 -2.412354,-0.709457 -2.864929,-1.787766c-0.484924,-1.72998 2.309204,-2.074692 2.257996,-3.747528c0.06012,-1.31871 -0.159119,-2.633881 -0.321167,-3.941986c-0.775452,-0.091927 -1.545532,-0.180901 -2.315063,-0.263382c-1.152527,2.777054 -2.114197,5.638397 -3.529602,8.29702c-2.307373,-0.522644 -4.479919,-1.495476 -6.749573,-2.131859c-2.301025,-0.398911 -4.587891,0.931595 -6.876404,0.492599c-1.79303,-1.213234 -3.230835,-2.874878 -4.881836,-4.263107c-2.569092,1.081833 -5.096924,2.259712 -7.552246,3.575478c2.320374,3.398125 4.616089,6.813911 7.082581,10.107735c1.253967,-0.703537 2.352295,-1.903214 3.815918,-2.108261c1.524963,0.601608 2.685181,1.844879 3.988525,2.807693c0.671082,0.653473 1.923889,1.32933 1.409424,2.440613c-1.415344,0.985794 -2.987366,1.690506 -4.458191,2.578506c0.748962,2.65451 1.495544,5.32019 2.452515,7.907532c0.675232,-0.0495 1.356384,-0.005295 2.039856,-0.070114c1.532654,0.00354 1.694031,0.245697 2.414673,2.069382c0.449097,1.127808 1.502625,3.856567 2.295105,6.685486c-3.263733,1.146057 -7.013062,2.510712 -10.600342,3.462936c-1.178467,-0.609863 -1.355835,-2.124191 -1.982178,-3.186005c-1.232666,0.867355 -2.397034,1.828995 -3.495361,2.853668c1.443604,0.672897 2.917358,1.303391 4.366272,1.970993c-0.14209,1.633957 -0.589233,3.216644 -1.054138,4.778702c2.999756,1.232666 6.139832,2.091187 9.179077,3.220169c2.036438,0.551529 2.64325,2.815964 3.735779,4.366241c0.696411,0.93924 1.134338,2.459457 2.510071,2.533112c6.272522,0.817856 12.571411,1.441879 18.84021,2.303345c1.268677,0.103699 2.636902,0.438385 3.838989,-0.172073c3.877136,-1.7836 7.803772,-3.483551 11.654419,-5.329056c3.851257,-1.844879 2.303955,-1.100082 2.303955,-1.100082c0,0 4.052734,-2.147186 6.222351,-2.922028c0.82428,0.725357 1.64447,1.467789 2.475342,2.189011c2.045776,-1.230911 7.97644,-2.430008 7.97644,-2.430008c2.883118,-0.4272 4.47467,-0.112549 7.368408,0.172058c1.385925,2.617386 2.164246,5.507584 3.381042,8.205109c5.794006,-0.812546 11.564331,-1.788925 17.361816,-2.589706c1.425415,-0.163788 2.857239,-0.592758 4.306702,-0.446625c1.042969,0.642258 1.620422,1.76947 2.327454,2.726974c-1.549683,3.338028 -3.688599,6.357849 -5.25,9.684097c-0.330017,1.84137 0.377075,3.699814 0.542114,5.534683c1.83252,-0.90506 3.5354,-2.029327 5.261841,-3.12825c0.159058,-1.040588 0.377075,-2.253235 0.595093,-3.322113c1.638123,0.160873 3.305603,0.749512 5.114563,0.992859c0.176758,-0.595703 0.247498,-1.540253 0.530334,-2.052902c2.050598,-0.739471 5.149902,-1.199081 7.259399,-1.749435c0.206238,-0.86322 -0.394836,-1.293381 0.153198,-1.930328c1.001648,-1.170822 2.309753,-2.146591 2.904907,-3.616135c0.601013,-1.460724 0.87793,-3.034561 1.225647,-4.572479c-1.190247,-0.759521 -2.71637,-1.195557 -3.553101,-2.383453c-1.154907,-2.788849 -1.308105,-5.863495 -2.168396,-8.743683c-0.441956,-1.167862 -1.620422,-1.80069 -2.551392,-2.533112c-1.926819,0.698837 -3.582581,2.044647 -5.580017,2.521347c-0.477356,-0.339401 -0.91925,-0.707077 -1.331726,-1.111298c2.922607,-4.279037 6.522827,-8.098465 9.304077,-12.457047c0.159058,-3.316208 -0.06488,-6.678375 -0.241638,-10.004608l-0.400696,-1.730591c1.296387,-3.302078 3.700439,-6.005508 5.102783,-9.248062c-1.590881,-0.747154 -3.223083,-1.418282 -4.766846,-2.25795c-1.7854,-8.971115 -3.246704,-17.994072 -4.973206,-26.976372l-0.388855,-1.946251c2.009277,-4.907753 3.382202,-10.061195 5.161621,-15.05851c1.00177,-3.573715 2.551453,-6.848686 3.087585,-10.52198c-2.050476,-2.172516 -4.660767,-3.703934 -6.852722,-5.718536c-0.895691,-0.850266 -1.190308,-2.104156 -1.573303,-3.231949c-1.095947,-3.765224 -2.227295,-7.515114 -3.346863,-11.276791c-1.190186,-4.302605 -6.110291,-6.51577 -6.817444,-11.012817l-1.166626,-1.20322c1.685181,-1.767708 2.274414,-4.26017 2.427612,-6.635376c-1.773621,0.010605 -3.670898,0.582161 -5.327881,-0.286369c-1.71637,-0.790169 -3.393982,-1.677551 -5.088013,-2.510147c-0.90686,-0.492006 -1.981628,-0.985203 -2.338135,-2.039347c-0.954529,-2.586147 -0.969849,-5.510525 -2.463623,-7.896343c-2.013367,-3.325052 -4.087463,-6.605327 -6.16571,-9.889731c-0.436646,-1.02527 -1.675781,-0.680567 -2.520813,-0.561536c-3.252502,0.679973 -6.476257,1.457764 -9.729431,2.120064c-2.551941,0.578636 -4.768616,-1.266267 -7.162659,-1.810715c0.496094,4.112858 1.705811,8.09433 2.349243,12.18185c0.472534,3.164202 1.74884,6.280663 1.512573,9.50025c-1.684631,2.853081 -4.881287,4.661446 -5.913025,7.918739c-1.188477,3.370419 -2.781189,6.605328 -3.518372,10.11953c-0.612183,2.846004 -1.435913,5.642525 -2.016907,8.49147c-0.01355,0.352367 -0.123718,0.800777 -0.126038,1.203224l0.538513,0.951611l4.263123,2.578499l-1.363525,6.062054l1.02002,2.830696l-2.979309,3.112907l0.009827,3.709496l1.799988,4.668472l-13.552979,-0.585793l-0.747803,1.378677l-1.317688,3.466866l-2.980774,1.097931l-1.377747,1.699074l0.229309,5.762199l6.310974,10.623795zm77.795227,52.358101c-0.400696,-0.49025 -0.889771,-1.058289 -0.624634,-1.746506c0.636414,-2.295074 1.738281,-4.432236 2.545532,-6.671326c0.553833,-1.598007 1.697021,-2.880783 2.834229,-4.0952c1.77948,0.998764 1.72644,3.294418 3.081726,4.630219c1.308105,0.606323 2.822388,0.512634 4.177673,1.015244c1.119568,1.877899 1.378784,4.135269 1.856079,6.238831c-1.437744,1.410049 -3.069946,2.67926 -4.124634,4.426346c-1.01355,1.679916 -2.056396,3.339783 -3.040466,5.035614c-0.795471,1.162552 -0.500854,2.619736 -0.577454,3.933731c-0.412476,-0.360611 -0.91333,-0.645203 -1.184326,-1.128387c-1.066589,-4.057465 -2.027039,-8.454346 -4.943726,-11.638565z" fill-rule="nonzero" fill="#2d5016" fill-opacity="0.7" id="kent"/>
   <path stroke="#AAA" stroke-width="2" fill="#2d5016" fill-opacity="0.7" fill-rule="nonzero" d="m806.481445,273.511749l6.793884,-5.099243c0.630493,2.441223 3.293823,3.374573 4.707947,5.271912c0.506836,1.721741 0.11792,3.60788 0.789612,5.294281c0.595154,0.93924 1.744141,1.261536 2.69281,1.718781c2.191956,0.892151 4.283752,2.031128 6.487488,2.899658c1.154846,0.545044 2.368713,-0.121399 3.5177,-0.355316c1.072449,1.113647 1.720581,2.943817 3.299805,3.381042c1.555481,-0.546234 2.545471,-2.030548 3.794617,-3.048706c1.431885,0.496124 2.940308,0.87677 4.248352,1.661652c1.125488,1.77179 1.160889,3.999695 2.133057,5.844635c0.294617,0.586273 1.037048,0.819 1.661682,0.744781c1.791321,-0.164978 3.57074,-0.446655 5.37384,-0.481415c-0.471436,3.152985 -1.190308,6.255341 -1.891418,9.362946c-0.489136,3.128845 -5.020325,3.140625 -5.580139,6.245911c-0.589233,2.986267 -0.972168,6.020233 -1.555603,9.00766c-0.81897,0.304596 -1.685181,0.507904 -2.433533,0.962219c-0.377014,0.616302 -0.642212,1.285706 -0.936829,1.936798c-0.294678,0.651703 -1.573242,2.082367 -0.677673,1.844879c0.89563,-0.236847 1.81488,-0.590393 2.76355,-0.435425c0.630432,0.509094 1.166687,1.125427 1.708801,1.73056c-1.508484,1.714081 -3.229004,3.219025 -4.731567,4.927795c-0.91333,0.992249 -0.695313,2.415863 -0.736572,3.64444c0.04126,1.877289 -0.088379,3.755768 0.094299,5.626617c0.600952,2.455322 3.682739,3.906616 3.252563,6.670105c-0.064819,3.355713 -1.319885,6.808044 -0.536194,10.107178c2.869568,2.074677 6.516907,2.791809 9.522034,4.664398c1.219727,2.320404 0.84259,5.126343 1.738281,7.563416c1.313965,2.129517 4.283752,2.312164 5.768616,4.251923c1.160767,2.454773 1.484802,5.251892 2.781189,7.643555c0.282837,0.183868 0.86615,0.549744 1.148987,0.733612c1.614502,-1.544373 2.76355,-3.524811 4.52533,-4.927765c1.7854,2.184875 3.700439,4.284332 5.273682,6.635376c-3.034607,1.912659 -6.234131,3.545441 -9.321716,5.36322c-2.168396,1.214417 -2.628052,3.855377 -3.61792,5.924744c-0.583313,1.590942 -1.585083,3.101166 -1.626282,4.835876c1.443604,1.940338 3.965576,2.71167 5.497559,4.573059c0.760132,1.7789 1.331665,3.711609 1.431885,5.649597c-0.813171,0.920959 -1.86792,2.274445 -3.264404,1.77594c-1.691101,-0.446014 -3.370422,-0.981628 -4.996704,-1.615692c-1.101868,-0.429565 -1.479004,-1.642181 -1.950439,-2.61264c-1.119446,-2.7276 -2.427612,-5.37854 -3.411621,-8.15976c0.789551,-1.222046 1.85022,-2.338654 2.244995,-3.769928c-0.200317,-0.599854 -0.547974,-1.140167 -0.96051,-1.604462c-4.448669,-4.5336 -8.691223,-9.261627 -13.181152,-13.752197c-2.680969,-2.6875 -4.955444,-5.814575 -7.954712,-8.159149c-2.569031,-0.548553 -5.2677,-0.00351 -7.872192,-0.367065c-0.530273,-2.69046 -0.82489,-5.462799 -2.026917,-7.964722c-1.084229,-2.266785 -1.826599,-4.711517 -3.152405,-6.852814c-1.585083,-1.615082 -4.336792,-0.377075 -6.116272,-1.478394c-2.869568,-3.61908 -5.362061,-7.529816 -8.196289,-11.173676c-0.624573,-0.836121 -1.685181,-1.084167 -2.66925,-1.065887c-3.55896,-0.02478 -7.117981,-0.04364 -10.671021,-0.251617c-0.1297,0.0112 -1.390625,-0.410706 -1.79718,-0.539185c-1.702881,-0.366486 -3.370422,-0.828461 -5.009705,-1.397644c0.441345,-3.413452 1.945679,-6.628906 2.163696,-10.073547c-0.665833,-1.651031 -2.270935,-2.665131 -3.424011,-3.964966c-1.432434,-1.297516 -2.606812,-3.054626 -4.481201,-3.735779c-2.180786,0.336456 -3.858948,2.082367 -6.027832,2.406433c-1.302185,-0.283417 -3.274414,-0.593964 -3.369263,-2.257935c-1.096008,-6.163422 -2.006958,-12.362183 -3.082886,-18.530273c-0.209167,-1.394745 -0.533813,-2.830139 -0.584534,-4.251923c-0.029419,-0.853241 0.04425,-1.696442 0.298218,-2.532562c0.253906,-0.8367 0.368774,-1.156067 0.527283,-2.200195c0.278076,-1.81308 1.009399,-3.640869 0.572693,-5.489319c-0.113037,-0.793121 -0.501953,-1.661652 -0.034058,-2.418243c1.068237,-2.354553 2.423523,-4.573029 3.53009,-6.910522c0.642883,-1.357605 0.362366,-2.904938 0.229126,-4.343292l7.762085,4.650848l5.633667,-1.585052l14.871765,4.119385l2.857788,-3.274384l6.18103,-2.994537z" id="cornwall"/>
   <path stroke="#AAA" stroke-width="2" fill="#504416" fill-opacity="0.7" fill-rule="evenodd" d="m364.36441,339.95752l4.682678,4.842316l8.99115,-9.8508l2.65033,-2.435913l11.283325,-0.215088l3.868896,4.907745l3.689209,2.041718l4.298462,2.471832l10.459534,3.689209l6.519287,6.555237l6.985413,2.220825l13.073944,-1.217957l-9.205627,4.51355l1.038818,3.259644l5.122223,0.429565l6.949463,-1.253326l8.596924,-7.343597l9.420715,-2.041718l2.005768,-3.546021l0.358246,-0.966949l-16.694214,4.279633l-3.478851,-6.237061l5.844604,-7.535126l1.325775,-1.755341l9.824921,-13.320282l-11.257904,-2.870758l-5.552368,5.516418l-1.82663,-3.044556l4.692657,-6.555267l5.730896,-10.029358l1.648102,-5.946564l-3.868958,-7.16394l-5.730865,-2.435883l0.608704,-9.420715l-10.638641,-1.038818l-1.173187,-20.806488l-1.409454,-4.743958l-4.763397,-11.541336l-14.023804,-8.215134l-5.915344,-5.498749l-4.881226,-5.897659l-2.60321,-6.499863l-10.86142,-7.492126l-16.776703,7.328918l-6.197571,-6.402634l-3.957916,-4.715073l-3.317932,-3.906036l-3.568451,1.627457l-4.4776,4.119354l-1.038818,9.38475l-4.512939,4.298492l-2.220856,6.161041l-4.943665,2.650375l1.038818,7.988266l6.770325,4.298477l2.041656,5.122223l0.179138,6.125122l-2.65094,5.337296l0.169678,6.746735l-2.075867,12.709808l-6.685455,12.045135l5.518158,12.208374l6.670746,8.1745l-0.87265,5.592407l-1.448914,11.547241l0.471375,7.706024l-0.87265,4.632568l2.392883,1.367035l7.002472,1.943329l7.578735,-1.898529z" id="southcaledonia"/>
   <g stroke="#AAA" stroke-width="2" fill="#504416" fill-opacity="0.7" id="centralcaledonia">
    <path stroke="null" fill-rule="evenodd" id="path3251" d="m392.295441,362.511078l-7.236786,5.934174l-5.644745,-1.736816l-3.907867,2.894714l-5.065765,-2.171021l-3.907867,-5.065765l4.342072,-4.776337l7.671021,-0.578888l3.618408,-3.184235l11.144684,1.881561l-1.013153,6.802612z"/>
    <path stroke="null" fill-rule="evenodd" id="path2470-2" d="m273.925598,354.26358l6.691376,2.442352l2.753479,3.280273l20.036377,11.589111l11.892517,4.907166l9.814911,-2.865479l12.895416,6.340179l7.987671,4.692657l3.080536,-3.259644l-0.823761,-3.474731l7.558136,5.122253l5.730927,-3.904297l17.193878,6.769745l11.892548,0.179138l4.907135,4.907715l8.167419,1.253326l-1.002899,-11.462402l-3.295563,-2.865479l-33.133942,-6.340149l-4.728577,-7.988251l-12.071106,5.122772l-5.516418,1.82666l-5.33728,-1.038818l0.608673,-2.220856l-5.730896,-5.33728l6.769714,1.826599l6.734375,1.648102l5.337311,-1.432983l4.513519,-5.122253l9.81488,-8.776062l-6.125671,-1.862579c-5.056854,-2.066437 -3.59729,-2.460052 -8.926331,-3.483582l-1.306366,-1.853729l-2.693939,-1.047668l-1.557373,-3.881836l1.022888,-4.424591l-0.199127,-7.956451l1.430084,-11.894897l0.615723,-4.424561l-6.311279,-7.820343l-3.458832,-7.005432l-2.64389,-5.783325l0.743622,-3.968506l1.981598,-8.748993l2.067596,-12.636169l-4.289032,-8.287582l-5.146362,-2.086502l-7.2659,-10.247955l3.183655,-5.877045l-8.333557,-11.487137l-7.509186,14.601257l-2.593842,-3.033401l-4.43869,-0.716507l-0.94397,4.721542l5.755646,13.736862l-6.033783,-4.738052l-3.148285,-14.131638l1.342896,-3.12117l-9.063049,-8.566315l-5.775085,-4.128189l-10.471313,-3.381042l-8.588135,-7.843307l-12.50061,-4.799316l-9.785721,-3.264374l-8.811798,-1.217941l-5.122345,-1.647507l-10.423691,-5.946564l-7.593948,-7.163925l-4.477539,1.038834l-9.850586,2.25676l-6.519318,5.122223l0.788055,10.853729l1.038803,12.895401l-1.647751,8.596375l-2.041763,11.032837l2.041763,5.516434l-0.179108,5.731506l-3.510391,8.41777l0.214935,7.16394l1.862656,3.868347l2.435776,5.122223l1.038788,7.773193l3.868591,4.298462l2.041794,4.728638l-2.220886,3.474152l5.086502,3.689758l5.122299,5.122253l7.537201,2.945557l12.531204,2.369934l12.915405,4.098114l7.15303,9.284607l20.929001,11.207245l3.449982,8.710083l0.568604,14.280731z"/>
   </g>
   <path stroke="#AAA" stroke-width="2" fill="#445016" fill-opacity="0.7" fill-rule="evenodd" d="m584.693726,313.301086l-1.66394,0.641693l-5.313721,-3.584351l0.064758,7.364868l-10.499573,4.290802l0.834961,12.746948l6.981873,1.030579l0.8349,5.255981l4.868286,-3.195435l0.451355,-3.387512l7.557556,-6.26889l4.292542,-4.923645l8.590454,0.237488l8.556946,11.375183l0.441284,2.478333l11.544312,10.356384l-2.580261,-8.216888l3.225464,-3.802917l-0.882629,-1.324615l-3.123535,0.169708l-5.670837,-7.232269l-1.901428,-17.180939l1.76593,-0.679413l2.546082,3.63324l4.176453,-0.645203l3.226074,0.679382l6.689026,-4.923645l3.837158,1.018799l6.17926,4.617828l6.689514,-4.040955l-2.207153,-6.383209l-4.68573,-5.025574l-5.840393,-1.324036l-2.546753,-11.952057l-10.050537,-0.441345l-2.988037,-5.534698l-3.159424,-6.657166l0.154907,-2.596771l0.99054,-2.949707l-1.706421,-9.593933l-1.770081,-1.942123l-1.659912,-12.142975l4.48053,-3.290283l-0.81134,-2.975632l-3.939636,0.810196l-2.364014,5.829895l-10.631592,2.337494l-2.201355,4.291428l-2.357544,0.557983l-2.659241,-3.127655l-9.317566,13.738586l-6.628906,7.015442l5.088074,14.891205l-1.058838,7.975861l-2.210815,4.134674l3.359192,-0.091339l2.014587,4.903046l1.82312,5.095123l1.166077,7.957031z" id="northwales"/>
   <path stroke="#AAA" stroke-width="2" fill="#445016" fill-opacity="0.7" fill-rule="evenodd" d="m742.871948,293.572662l-14.048828,5.621094l1.036011,8.011017l4.838928,3.121521c-0.327454,2.389679 -0.339539,4.7883 -0.372803,7.193787l1.427673,2.842896l-2.103699,4.472687l-2.375366,0.805603l-1.560425,-1.63916l0.612732,-4.491394l-4.412659,-8.430115l-0.920898,7.444641l-1.977295,1.682281l0.903809,6.292175l-4.378296,2.834808l-5.892456,-0.665802l3.327332,5.480743l-0.034119,11.435089l1.401062,2.897156l5.803284,1.959625l1.185364,3.046204l-1.1604,4.190857l4.469971,5.257874l-2.320984,4.171326l-3.135925,1.862396l-3.443542,-5.724945l-1.949646,11.116699l1.581726,0.522766l-2.221313,2.288391l-1.949585,-2.193634l-0.727295,-4.910034l-5.20929,-0.020508l-5.274658,4.453735l0.701477,5.947693l-2.558228,1.058258l-5.138855,-12.387939l-4.731262,-0.435791l-0.520996,-2.608887l2.874573,-2.608917l-2.537781,-4.029663l0.99353,-5.11618l-8.242188,-5.252014l0.99353,-2.535614l-2.265991,-1.313232l0.042786,-7.968414l-7.670776,-10.098511l-2.645447,-7.38208l-6.584229,-5.344818l-14.656372,-5.216705l-4.334106,0.216125l-2.432556,-6.439087l0.943665,-3.583069l6.783752,-1.274139l-2.180237,-4.669647l4.203186,1.713898l9.147278,-5.220978l2.492188,3.607269l3.035339,-0.738892l3.714539,1.434174l12.135254,0.075989l7.109985,-4.270264l6.15918,3.064026l5.999817,0.784973l8.228882,4.738739l2.388733,-0.286591l4.181763,-3.059296l-2.559204,-2.86554l0.972107,-6.668488l-2.423401,-3.68045l-3.645752,-4.902863l0.564636,-1.914825l3.281067,-2.86554l0.021362,-1.371521l-2.096436,-1.86026l-0.466553,-2.539307l1.027344,-5.255768l-6.850037,-7.564636l-7.16333,3.424652l-2.002197,-2.144012l5.890686,-3.233063l0.672302,-0.408188l0.50415,-0.480194l0.072021,-0.504181l-0.048035,-0.552231l-0.240112,-0.672272l-0.456116,-1.032425l-0.384216,-0.840347l-0.168091,-0.600235l-0.07196,-0.504211l0.096008,-0.480194l0.16803,-0.336136l0.504272,-0.696289l1.944824,-2.809128l3.889465,-5.450226l0.576294,-0.81633l0.456177,-0.432175l0.288147,-0.168076l1.752625,-0.240097l2.23291,-0.120026l4.417847,-0.024048l4.345764,-0.144073l4.633911,-0.264099l4.946045,4.489822l1.896667,3.86557l0.620728,1.665619l1.2229,2.430862l-1.258911,6.212158l2.793396,3.692123l5.342102,6.402771l4.453552,1.00705l1.468689,8.082062l-1.375,11.642151l-5.78064,5.450195c-0.271667,1.448761 -0.543274,2.897491 -0.81488,4.346222z" id="southwales"/>
   <path stroke="#AAA" stroke-width="2" fill="#445016" fill-opacity="0.7" fill-rule="evenodd" d="m664.764343,287.975739l2.78418,4.074585l2.309204,-0.865601l3.972656,1.83371l8.607544,-0.03421l2.393982,0.152649l7.843445,-4.719788l6.740234,3.124115l5.874084,0.848511l8.692383,5.280121l3.293884,-2.206665l-2.139587,-2.852509l1.205566,-6.841614l-1.697571,-3.412842l-3.802917,-5.109863l0.203857,-2.071747l3.514221,-3.360992l-0.322876,-0.764221l-2.054077,-1.035889l-0.356506,-3.259674l1.239197,-4.855286l-2.886108,-2.818329l-3.565491,-3.565445l-6.875732,3.039291l-2.903259,-2.903168l-5.36438,2.71637l-1.901428,0.89975l-0.458435,0.135498l-0.611572,0.03421l-0.730164,-0.067749l-1.442993,-0.458435l-4.498779,-1.562073l-8.573364,-3.022202l-2.258545,-0.780701l-5.228943,-1.83371l-1.884338,3.412857l-2.784119,5.466309l-1.646851,3.191895l-0.271729,0.543274l-0.238037,0.288727l-0.237427,0.152618l-0.339478,0.186798l-0.237976,0.051239l-0.356506,0.0336l-0.305237,-0.067749l-0.339355,-0.237457l-1.307495,-1.715302l-3.955627,-5.38147l-2.037598,-2.665695l-0.933899,1.884354l-0.543274,1.154907l-0.543274,0.88269l-0.203308,0.152588l-0.203796,0.101959l-0.271667,0.084839l-0.339478,0.03418l-0.611572,-0.152588l-0.814941,-0.322937l-2.6651,-1.171387l-3.972656,-1.78244l-5.076294,-2.22435l-2.411072,-0.984619l-0.271667,-0.050674l-0.237427,0.050674l-0.288757,0.152588l-0.305725,0.220963l-0.356567,0.407196l-1.663391,2.309204l-2.529602,3.633209l-0.91687,1.171417l-0.220947,0.220978l-0.339355,0.288147l-0.254639,0.186737l-0.441284,0.153229l-0.238098,0.033569l-0.475464,-0.152588l-2.071106,-0.86618l-1.239197,-0.678802l-3.63324,-1.884369l2.190125,9.201477l-1.59613,4.600769l2.444702,5.772766l3.158264,5.856995l10.407104,0.492584l2.563782,12.087585l5.38147,1.222656l3.989685,4.41394l1.171448,-3.463501l5.602417,-0.712952l-2.732849,-6.756805l6.756775,3.174805l9.676941,-5.738556l0,0z" id="centralwales"/>
  </g>
 </g>
</svg>
